<?xml version="1.0" encoding="UTF-8" standalone="no"?>
<svg
   version="1.1"
   id="svg2"
   width="666.66669"
   height="666.66669"
   viewBox="0 0 666.66669 666.66669"
   xmlns="http://www.w3.org/2000/svg">
  <defs
     id="defs6" />
  <g
     id="g8"
     transform="matrix(1.3333333,0,0,-1.3333333,0,666.66667)">
    <g
       id="g10"
       transform="scale(0.1)">
      <path
         d="M 5000,0 H 0 V 5000 H 5000 V 0"
         style="fill:#ffffff;fill-opacity:1;fill-rule:nonzero;stroke:none"
         id="path12" />
      <g
         id="g14"
         transform="scale(10)">
        <text
           xml:space="preserve"
           transform="matrix(1,0,0,-1,122.333,103.706)"
           style="font-variant:normal;font-weight:300;font-size:26.0546px;font-family:Montserrat;-inkscape-font-specification:Montserrat-Light;writing-mode:lr-tb;fill:#1e90ff;fill-opacity:1;fill-rule:nonzero;stroke:none"
           id="text18"><tspan
             x="0 21.859898 44.344803 69.904388 87.985893 95.333076 111.85169 134.33659 149.86488 170.81308 186.13287 194.47026 216.95517 238.81506"
             y="0">HOME SOLUTIONS</tspan></text>
      </g>
      <g
         id="g20"
         transform="scale(10)">
        <text
           xml:space="preserve"
           transform="matrix(1,0,0,-1,72.7387,137.133)"
           style="font-variant:normal;font-weight:bold;font-size:48.9948px;font-family:Montserrat;-inkscape-font-specification:Montserrat-Bold;writing-mode:lr-tb;fill:#0b1922;fill-opacity:1;fill-rule:nonzero;stroke:none"
           id="text24"><tspan
             x="0 37.235397 71.334991 110.08988 140.90678 155.99707 190.09668 222.08987 251.87897 288.91998 320.42337"
             y="0">REAL ESTATE</tspan></text>
      </g>
      <path
         d="m 3072.56,3057.47 v 438.79 l -732.7,534.68 v -960.27 l -125.05,-91.25 v 516.56 L 1384.7,2890.22 v -939.66 h 112.53 v 882.48 l 605.05,441.51 V 2897.3 l -358.79,-261.82 v -684.92 h 471.32 v 748.77 l -112.53,-82.12 v -554.12 h -246.25 v 515.2 l 596.36,435.19 v 796.03 l 507.64,-370.43 v -299.5 l -348.76,254.51 V 1950.56 h 112.53 v 1222.1 l 778.96,-568.45 v -541.12 h -430.2 v 714.28 l -112.53,82.12 v -908.93 h 655.27 v 710.85 z m -732.7,-266.9 112.53,82.12 v -922.13 h -112.53 v 840.01"
         style="fill:#1e90ff;fill-opacity:1;fill-rule:nonzero;stroke:none"
         id="path26" />
    </g>
  </g>
</svg>